<svg width="32" height="32" viewBox="0 0 32 32" fill="none" xmlns="http://www.w3.org/2000/svg">
<circle cx="16" cy="16" r="16" fill="white"/>
<path d="M16.0799 4.46643C18.4545 4.46643 20.7442 5.35689 22.398 7.0106C24.0941 8.66431 25.0269 10.8269 25.0269 13.159V27.5336H7.13294V13.159C7.13294 10.8269 8.0658 8.66431 9.76191 7.0106C11.4156 5.35689 13.663 4.46643 16.0799 4.46643ZM16.0799 4C13.5782 4 11.2036 4.93286 9.42269 6.67138C7.64177 8.40989 6.6665 10.6996 6.6665 13.159V28H25.4934V13.159C25.4934 10.6996 24.5181 8.40989 22.7372 6.71378C20.9563 4.93286 18.5817 4 16.0799 4Z" fill="#070001"/>
<path d="M21.6197 7.86495L21.1956 7.44092C19.7963 6.21124 18.0154 5.5752 16.1073 5.5752C14.0296 5.5752 12.0366 6.38085 10.5949 7.86495C9.11083 9.34905 8.30518 11.2996 8.30518 13.3773V26.3526H23.9094V13.4197C23.9094 11.2996 23.0614 9.34905 21.6197 7.86495ZM19.2027 25.5469C18.4819 25.8013 17.6762 25.9286 16.8705 25.9286H11.231V23.342C11.1038 23.2148 10.9766 23.0452 10.8917 22.918C9.91648 21.6459 9.40765 20.077 9.40765 18.4657V13.5893C9.40765 11.6812 10.1285 9.90028 11.4006 8.50099C11.5702 8.50099 11.7822 8.50099 11.9942 8.54339C13.3087 8.6706 15.0896 9.13703 16.6161 10.1971C17.973 11.13 19.6267 12.8261 19.6267 15.5823V25.4197C19.4995 25.4621 19.3723 25.5045 19.2027 25.5469Z" fill="#070001"/>
<path d="M16.6587 10.1971C15.1322 9.17942 13.3513 8.67059 12.0368 8.54338C11.8248 8.54338 11.6127 8.50098 11.4431 8.50098C10.171 9.90027 9.4502 11.6812 9.4502 13.5893V18.4656C9.4502 20.0769 9.95903 21.6459 10.9343 22.9179C11.0615 23.0451 11.1463 23.2148 11.2735 23.342V25.9285H16.9131C17.7187 25.9285 18.482 25.8013 19.2452 25.5469C19.4149 25.5045 19.5421 25.4621 19.7117 25.3773V15.5398C19.6693 12.7837 18.0156 11.13 16.6587 10.1971ZM11.6975 25.4621V23.8084C12.4608 24.5292 13.3513 25.1229 14.3265 25.4621H11.6975ZM19.2028 25.0805C18.482 25.3349 17.6763 25.4621 16.8707 25.4621C15.005 25.4621 13.2664 24.7413 11.9096 23.3844L11.6551 23.13C11.4855 22.9603 11.3159 22.7483 11.1887 22.5363C10.2983 21.349 9.83182 19.9073 9.83182 18.4232V13.5893C9.83182 11.8932 10.4679 10.2395 11.5703 8.96741C14.5385 9.09462 19.1604 11.13 19.1604 15.5398V25.0805H19.2028Z" fill="#070001"/>
<path d="M14.2974 19.7908C14.1702 19.7908 14.043 19.6636 14.043 19.5364V15.2113C14.043 14.0664 14.9758 13.1335 16.1207 13.1335C17.2656 13.1335 18.1984 14.0664 18.1984 15.2113C18.1984 15.3385 18.0712 15.4657 17.944 15.4657C17.8168 15.4657 17.6896 15.3385 17.6896 15.2113C17.6896 14.3632 16.9688 13.6424 16.1207 13.6424C15.2727 13.6424 14.5518 14.3632 14.5518 15.2113V19.5364C14.5518 19.6636 14.4246 19.7908 14.2974 19.7908Z" fill="#070001"/>
<path d="M16.8839 16.441C16.7567 16.441 16.6295 16.3137 16.6295 16.1865C16.6295 15.8897 16.4175 15.6777 16.1207 15.6777C15.8239 15.6777 15.6119 15.8897 15.6119 16.1865C15.6119 16.3137 15.4847 16.441 15.3574 16.441C15.2302 16.441 15.103 16.3137 15.103 16.1865C15.103 15.5929 15.5695 15.1265 16.1631 15.1265C16.7567 15.1265 17.2232 15.5929 17.2232 16.1865C17.1384 16.3137 17.0112 16.441 16.8839 16.441Z" fill="#070001"/>
<path d="M14.2977 19.7908C13.5345 19.7908 12.8984 19.1548 12.8984 18.3915C12.8984 18.2643 13.0256 18.1371 13.1529 18.1371C13.2801 18.1371 13.4073 18.2643 13.4073 18.3915C13.4073 18.8579 13.7889 19.2396 14.2553 19.2396C14.7218 19.2396 15.1034 18.8579 15.1034 18.3915C15.1034 18.2643 15.2306 18.1371 15.3578 18.1371C15.485 18.1371 15.6122 18.2643 15.6122 18.3915C15.6546 19.1548 15.061 19.7908 14.2977 19.7908Z" fill="#070001"/>
<path d="M12.8135 16.865C12.7287 16.865 12.6863 16.8226 12.6439 16.7802L11.499 15.6354V16.6106C11.499 16.7378 11.3718 16.865 11.2446 16.865C11.1174 16.865 10.9478 16.7378 10.9478 16.5682V14.9993C10.9478 14.8721 11.0326 14.7873 11.1174 14.7449C11.2446 14.7025 11.3294 14.7025 11.4142 14.7873L12.5591 15.9322V15.2537C12.5591 15.1265 12.6863 14.9993 12.8135 14.9993C12.9407 14.9993 13.0679 15.1265 13.0679 15.2537V16.5682C13.0679 16.6954 12.9831 16.7802 12.8983 16.8226C12.8983 16.865 12.8559 16.865 12.8135 16.865Z" fill="#070001"/>
<path d="M14.2551 15.5081C14.1279 15.5081 14.0007 15.3809 14.0007 15.2536C14.0007 15.2112 14.0007 14.1512 13.2798 14.1512C13.1526 14.1512 13.0254 14.024 13.0254 13.8968C13.0254 13.7695 13.1526 13.6423 13.2798 13.6423C14.2551 13.6423 14.5095 14.7024 14.5095 15.2536C14.5095 15.3809 14.3823 15.5081 14.2551 15.5081Z" fill="#070001"/>
</svg>
