<svg width="32" height="32" viewBox="0 0 32 32" fill="none" xmlns="http://www.w3.org/2000/svg">
<g clip-path="url(#clip0_301_3324)">
<path d="M16 32C24.8366 32 32 24.8366 32 16C32 7.16344 24.8366 0 16 0C7.16344 0 0 7.16344 0 16C0 24.8366 7.16344 32 16 32Z" fill="black"/>
<path d="M13.351 8.53345H8.6932C8.60484 8.53345 8.5332 8.60508 8.5332 8.69345V13.3512C8.5332 13.4396 8.60484 13.5112 8.6932 13.5112H13.351C13.4393 13.5112 13.511 13.4396 13.511 13.3512V8.69345C13.511 8.60508 13.4393 8.53345 13.351 8.53345Z" fill="white"/>
<path d="M23.3065 8.53345H18.6488C18.5604 8.53345 18.4888 8.60508 18.4888 8.69345V13.3512C18.4888 13.4396 18.5604 13.5112 18.6488 13.5112H23.3065C23.3949 13.5112 23.4665 13.4396 23.4665 13.3512V8.69345C23.4665 8.60508 23.3949 8.53345 23.3065 8.53345Z" fill="white"/>
<path d="M18.329 13.5112H13.6712C13.5829 13.5112 13.5112 13.5829 13.5112 13.6712V18.329C13.5112 18.4174 13.5829 18.489 13.6712 18.489H18.329C18.4174 18.489 18.489 18.4174 18.489 18.329V13.6712C18.489 13.5829 18.4174 13.5112 18.329 13.5112Z" fill="white"/>
<path d="M13.351 18.4888H8.6932C8.60484 18.4888 8.5332 18.5604 8.5332 18.6488V23.3065C8.5332 23.3949 8.60484 23.4665 8.6932 23.4665H13.351C13.4393 23.4665 13.511 23.3949 13.511 23.3065V18.6488C13.511 18.5604 13.4393 18.4888 13.351 18.4888Z" fill="white"/>
<path d="M23.3065 18.4888H18.6488C18.5604 18.4888 18.4888 18.5604 18.4888 18.6488V23.3065C18.4888 23.3949 18.5604 23.4665 18.6488 23.4665H23.3065C23.3949 23.4665 23.4665 23.3949 23.4665 23.3065V18.6488C23.4665 18.5604 23.3949 18.4888 23.3065 18.4888Z" fill="white"/>
</g>
<defs>
<clipPath id="clip0_301_3324">
<rect width="32" height="32" fill="white"/>
</clipPath>
</defs>
</svg>
