<svg width="32" height="32" viewBox="0 0 32 32" fill="none" xmlns="http://www.w3.org/2000/svg">
<path d="M15.9998 29.3334C23.3636 29.3334 29.3332 23.3639 29.3332 16.0001C29.3332 8.63628 23.3636 2.66675 15.9998 2.66675C8.63604 2.66675 2.6665 8.63628 2.6665 16.0001C2.6665 23.3639 8.63604 29.3334 15.9998 29.3334Z" fill="url(#paint0_linear_301_3157)"/>
<path d="M25.5451 16.1626H23.1946C23.1946 11.3725 19.2979 7.4895 14.4907 7.4895C9.74302 7.4895 5.88312 11.2774 5.78865 15.9855C5.69091 20.8521 10.273 25.0782 15.1576 25.0782H15.772C20.0784 25.0782 25.8502 21.719 26.752 17.6262C26.9185 16.8718 26.3205 16.1626 25.5451 16.1626ZM10.9977 16.376C10.9977 17.0165 10.4719 17.5405 9.82909 17.5405C9.18624 17.5405 8.66048 17.0163 8.66048 16.376V14.4921C8.66048 13.8516 9.18624 13.3277 9.82909 13.3277C10.4719 13.3277 10.9977 13.8516 10.9977 14.4921V16.376ZM15.0556 16.376C15.0556 17.0165 14.5299 17.5405 13.8871 17.5405C13.2442 17.5405 12.7184 17.0163 12.7184 16.376V14.4921C12.7184 13.8516 13.2444 13.3277 13.8871 13.3277C14.5299 13.3277 15.0556 13.8516 15.0556 14.4921V16.376Z" fill="url(#paint1_linear_301_3157)"/>
<defs>
<linearGradient id="paint0_linear_301_3157" x1="15.9998" y1="2.66675" x2="15.9998" y2="29.3334" gradientUnits="userSpaceOnUse">
<stop stop-color="#534BB1"/>
<stop offset="1" stop-color="#551BF9"/>
</linearGradient>
<linearGradient id="paint1_linear_301_3157" x1="16.2835" y1="7.4895" x2="16.2835" y2="25.0782" gradientUnits="userSpaceOnUse">
<stop stop-color="white"/>
<stop offset="1" stop-color="white" stop-opacity="0.82"/>
</linearGradient>
</defs>
</svg>
